<svg width="242.46499633789062px" height="120.8px" xmlns="http://www.w3.org/2000/svg" viewBox="128.7675018310547 14.600000000000001 242.46499633789062 120.8" style="background: rgba(0, 0, 0, 0);" preserveAspectRatio="xMidYMid"><defs><filter id="editing-offset"><feFlood flood-color="#f00" flood-opacity="0.5" result="c1"></feFlood><feFlood flood-color="#0f0" flood-opacity="0.5" result="c2"></feFlood><feFlood flood-color="#00f" flood-opacity="0.5" result="c3"></feFlood><feComposite operator="in" in="c1" in2="SourceAlpha" result="text-c1"></feComposite><feComposite operator="in" in="c2" in2="SourceAlpha" result="text-c2"></feComposite><feComposite operator="in" in="c3" in2="SourceAlpha" result="text-c3"></feComposite><feOffset in="text-c1" dx="-10" dy="0" result="text1"></feOffset><feOffset in="text-c2" dx="10" dy="0" result="text2"></feOffset><feOffset in="text-c3" dx="0" dy="0" result="text3"></feOffset><feMerge><feMergeNode in="text1"></feMergeNode><feMergeNode in="text2"></feMergeNode><feMergeNode in="text3"></feMergeNode></feMerge></filter></defs><g filter="url(#editing-offset)"><g transform="translate(169.90501338243484, 96.76000022888184)"><path d="M7.68 0L0.64 0L8.32-42.24L22.08-42.24L32.06-13.18L37.38-42.24L44.48-42.18L36.67 0L22.02 0L12.80-27.97L7.68 0ZM60.03 1.28L60.03 1.28L60.03 1.28Q45.95 1.28 45.95-11.97L45.95-11.97L45.95-11.97Q45.95-21.38 51.14-27.46L51.14-27.46L51.14-27.46Q56.64-33.92 66.18-33.92L66.18-33.92L66.18-33.92Q73.09-33.92 76.61-30.72L76.61-30.72L76.61-30.72Q80.13-27.52 80.13-20.80L80.13-20.80L80.13-20.80Q80.13-10.56 74.62-4.61L74.62-4.61L74.62-4.61Q69.25 1.28 60.03 1.28ZM61.70-26.56L61.70-26.56L61.70-26.56Q60.93-24.83 60.32-22.24L60.32-22.24L60.32-22.24Q59.71-19.65 58.94-15.55L58.94-15.55L58.94-15.55Q58.18-11.46 58.18-6.40L58.18-6.40L58.18-6.40Q58.18-4.74 58.72-3.65L58.72-3.65L58.72-3.65Q59.26-2.56 60.74-2.56L60.74-2.56L60.74-2.56Q62.21-2.56 63.14-3.26L63.14-3.26L63.14-3.26Q64.06-3.97 64.77-5.63L64.77-5.63L64.77-5.63Q66.05-8.58 67.07-14.05L67.07-14.05L67.07-14.05Q68.10-19.52 68.19-21.89L68.19-21.89L68.19-21.89Q68.29-24.26 68.29-26.02L68.29-26.02L68.29-26.02Q68.29-27.78 67.78-28.93L67.78-28.93L67.78-28.93Q67.26-30.08 65.82-30.08L65.82-30.08L65.82-30.08Q64.38-30.08 63.42-29.18L63.42-29.18L63.42-29.18Q62.46-28.29 61.70-26.56ZM104.45-2.69L104.45-2.69L104.45-2.69Q101.38 1.28 93.76 1.28L93.76 1.28L93.76 1.28Q89.79 1.28 86.91-1.12L86.91-1.12L86.91-1.12Q84.03-3.52 84.03-6.98L84.03-6.98L84.03-6.98Q84.03-8.90 84.22-9.86L84.22-9.86L88.51-32.64L101.50-33.92L96.83-9.22L96.83-9.22Q96.58-7.81 96.58-6.98L96.58-6.98L96.58-6.98Q96.58-3.26 98.82-3.26L98.82-3.26L98.82-3.26Q101.31-3.26 103.10-6.66L103.10-6.66L103.10-6.66Q103.68-7.74 103.94-9.15L103.94-9.15L108.48-32.64L121.09-33.92L116.35-8.96L116.35-8.96Q116.16-8 116.16-6.98L116.16-6.98L116.16-6.98Q116.16-5.95 116.74-4.83L116.74-4.83L116.74-4.83Q117.31-3.71 119.17-3.46L119.17-3.46L119.17-3.46Q118.78-1.92 117.44-0.90L117.44-0.90L117.44-0.90Q114.62 1.28 111.58 1.28L111.58 1.28L111.58 1.28Q108.54 1.28 106.75 0.19L106.75 0.19L106.75 0.19Q104.96-0.90 104.45-2.69ZM151.62 1.28L151.62 1.28L151.62 1.28Q143.87 1.28 143.87-4.74L143.87-4.74L143.87-4.74Q143.94-6.40 144.45-9.22L144.45-9.22L145.60-15.10L145.60-15.10Q147.33-23.42 147.33-25.28L147.33-25.28L147.33-25.28Q147.33-28.99 145.15-28.99L145.15-28.99L145.15-28.99Q141.50-28.99 139.58-19.46L139.58-19.46L135.81 0L122.94 1.28L129.60-32.70L140.10-33.92L139.07-27.65L139.07-27.65Q142.08-33.92 151.30-33.92L151.30-33.92L151.30-33.92Q155.78-33.92 157.66-32.03L157.66-32.03L157.66-32.03Q159.55-30.14 159.55-25.92L159.55-25.92L159.55-25.92Q159.55-21.95 157.50-12.67L157.50-12.67L157.50-12.67Q156.54-8.51 156.54-6.94L156.54-6.94L156.54-6.94Q156.54-5.38 157.41-4.48L157.41-4.48L157.41-4.48Q158.27-3.58 159.55-3.46L159.55-3.46L159.55-3.46Q158.91-1.28 156.70 0L156.70 0L156.70 0Q154.50 1.28 151.62 1.28Z"></path></g></g><style>text {
  font-size: 64px;
  font-family: Arial Black;
  dominant-baseline: central;
  text-anchor: middle;
}</style></svg>