<svg width="662.225px" height="120.8px" xmlns="http://www.w3.org/2000/svg" viewBox="-81.11250000000001 14.600000000000001 662.225 120.8" style="background: rgba(0, 0, 0, 0);" preserveAspectRatio="xMidYMid"><defs><filter id="editing-offset"><feFlood flood-color="#f00" flood-opacity="0.5" result="c1"></feFlood><feFlood flood-color="#0f0" flood-opacity="0.5" result="c2"></feFlood><feFlood flood-color="#00f" flood-opacity="0.5" result="c3"></feFlood><feComposite operator="in" in="c1" in2="SourceAlpha" result="text-c1"></feComposite><feComposite operator="in" in="c2" in2="SourceAlpha" result="text-c2"></feComposite><feComposite operator="in" in="c3" in2="SourceAlpha" result="text-c3"></feComposite><feOffset in="text-c1" dx="-10" dy="0" result="text1"></feOffset><feOffset in="text-c2" dx="10" dy="0" result="text2"></feOffset><feOffset in="text-c3" dx="0" dy="0" result="text3"></feOffset><feMerge><feMergeNode in="text1"></feMergeNode><feMergeNode in="text2"></feMergeNode><feMergeNode in="text3"></feMergeNode></feMerge></filter></defs><g filter="url(#editing-offset)"><g transform="translate(14.160017251968384, 99)"><path d="M14.21 0L0.51 0L8.32-42.05L8.32-42.05Q14.66-42.75 23.90-42.75L23.90-42.75L23.90-42.75Q33.15-42.75 37.44-40.06L37.44-40.06L37.44-40.06Q41.73-37.38 41.73-31.97L41.73-31.97L41.73-31.97Q41.73-26.56 38.94-23.17L38.94-23.17L38.94-23.17Q36.16-19.78 31.36-18.69L31.36-18.69L31.36-18.69Q32.45-13.38 34.94-9.09L34.94-9.09L34.94-9.09Q37.25-5.06 39.94-3.78L39.94-3.78L39.94-3.78Q38.98-1.09 37.02 0.10L37.02 0.10L37.02 0.10Q35.07 1.28 32.29 1.28L32.29 1.28L32.29 1.28Q29.50 1.28 27.33-0.35L27.33-0.35L27.33-0.35Q25.15-1.98 23.42-4.99L23.42-4.99L23.42-4.99Q19.78-11.52 19.39-21.82L19.39-21.82L19.84-21.82L19.84-21.82Q24.58-21.95 26.94-24.42L26.94-24.42L26.94-24.42Q29.31-26.88 29.31-32.06L29.31-32.06L29.31-32.06Q29.31-38.53 23.87-38.78L23.87-38.78L22.46-38.78L22.46-38.78Q21.89-38.78 21.57-38.72L21.57-38.72L14.21 0ZM70.59-10.82L70.59-10.82L70.59-10.82Q72.19-9.73 72.19-7.33L72.19-7.33L72.19-7.33Q72.19-4.93 70.98-3.39L70.98-3.39L70.98-3.39Q69.76-1.86 67.78-0.83L67.78-0.83L67.78-0.83Q63.68 1.28 59.26 1.28L59.26 1.28L59.26 1.28Q54.85 1.28 52.26 0.32L52.26 0.32L52.26 0.32Q49.66-0.64 47.94-2.43L47.94-2.43L47.94-2.43Q44.54-5.82 44.54-12.03L44.54-12.03L44.54-12.03Q44.54-21.70 49.79-27.58L49.79-27.58L49.79-27.58Q55.42-33.92 65.22-33.92L65.22-33.92L65.22-33.92Q71.30-33.92 74.30-31.36L74.30-31.36L74.30-31.36Q76.54-29.44 76.54-26.30L76.54-26.30L76.54-26.30Q76.54-15.04 57.09-15.04L57.09-15.04L57.09-15.04Q56.83-13.38 56.83-11.97L56.83-11.97L56.83-11.97Q56.83-9.02 58.14-7.90L58.14-7.90L58.14-7.90Q59.46-6.78 61.89-6.78L61.89-6.78L61.89-6.78Q64.32-6.78 66.91-7.90L66.91-7.90L66.91-7.90Q69.50-9.02 70.59-10.82ZM57.54-17.79L57.54-17.79L57.54-17.79Q62.08-17.79 64.70-20.61L64.70-20.61L64.70-20.61Q67.33-23.30 67.33-27.58L67.33-27.58L67.33-27.58Q67.33-29.06 66.78-29.86L66.78-29.86L66.78-29.86Q66.24-30.66 65.15-30.66L65.15-30.66L65.15-30.66Q64.06-30.66 63.14-30.24L63.14-30.24L63.14-30.24Q62.21-29.82 61.25-28.42L61.25-28.42L61.25-28.42Q58.88-25.22 57.54-17.79ZM81.50-1.92L81.50-1.92L81.50-1.92Q80-3.58 79.33-6.21L79.33-6.21L79.33-6.21Q78.66-8.83 78.66-13.12L78.66-13.12L78.66-13.12Q78.66-17.41 80.13-21.31L80.13-21.31L80.13-21.31Q81.60-25.22 84.29-28.03L84.29-28.03L84.29-28.03Q89.79-33.92 98.88-33.92L98.88-33.92L98.88-33.92Q102.14-33.92 104.51-32.83L104.51-32.83L115.46-33.92L110.72-8.96L110.72-8.96Q110.53-8.19 110.53-6.78L110.53-6.78L110.53-6.78Q110.53-5.38 111.39-4.48L111.39-4.48L111.39-4.48Q112.26-3.58 113.54-3.46L113.54-3.46L113.54-3.46Q112.90-1.28 110.56 0L110.56 0L110.56 0Q108.22 1.28 105.60 1.28L105.60 1.28L105.60 1.28Q102.98 1.28 101.22 0.29L101.22 0.29L101.22 0.29Q99.46-0.70 98.94-2.37L98.94-2.37L98.94-2.37Q97.92-0.77 95.74 0.26L95.74 0.26L95.74 0.26Q93.57 1.28 90.66 1.28L90.66 1.28L90.66 1.28Q87.74 1.28 85.38 0.51L85.38 0.51L85.38 0.51Q83.01-0.26 81.50-1.92ZM95.01-27.90L95.01-27.90L95.01-27.90Q94.27-26.75 93.63-24.80L93.63-24.80L93.63-24.80Q92.99-22.85 91.94-17.63L91.94-17.63L91.94-17.63Q90.88-12.42 90.88-8.70L90.88-8.70L90.88-8.70Q90.88-4.99 91.46-3.90L91.46-3.90L91.46-3.90Q92.03-2.82 93.06-2.82L93.06-2.82L93.06-2.82Q95.10-2.82 96.61-4.77L96.61-4.77L96.61-4.77Q98.11-6.72 98.69-10.18L98.69-10.18L102.08-28.93L102.08-28.93Q100.74-30.08 99.17-30.08L99.17-30.08L99.17-30.08Q97.60-30.08 96.67-29.57L96.67-29.57L96.67-29.57Q95.74-29.06 95.01-27.90ZM138.82-33.92L138.82-33.92L138.82-33.92Q141.12-33.92 142.91-33.41L142.91-33.41L142.91-33.41Q142.98-33.66 143.10-34.37L143.10-34.37L143.42-36.35L143.42-36.35Q143.68-37.63 144.06-39.74L144.06-39.74L145.09-44.80L157.82-46.08L150.72-8.96L150.72-8.96Q150.66-8.58 150.66-7.94L150.66-7.94L150.66-6.91L150.66-6.91Q150.66-5.50 151.36-4.45L151.36-4.45L151.36-4.45Q152.06-3.39 153.22-3.39L153.22-3.39L153.22-3.39Q151.94-0.38 148.03 0.90L148.03 0.90L148.03 0.90Q146.69 1.28 144.80 1.28L144.80 1.28L144.80 1.28Q142.91 1.28 141.18 0.29L141.18 0.29L141.18 0.29Q139.46-0.70 138.94-2.37L138.94-2.37L138.94-2.37Q137.92-0.70 135.87 0.29L135.87 0.29L135.87 0.29Q133.82 1.28 130.85 1.28L130.85 1.28L130.85 1.28Q127.87 1.28 125.41 0.51L125.41 0.51L125.41 0.51Q122.94-0.26 121.41-1.92L121.41-1.92L121.41-1.92Q118.59-5.18 118.59-12.61L118.59-12.61L118.59-12.61Q118.59-22.21 124.22-28.03L124.22-28.03L124.22-28.03Q129.86-33.92 138.82-33.92ZM138.37-30.08L138.37-30.08L138.37-30.08Q136-30.08 134.72-27.52L134.72-27.52L134.72-27.52Q133.44-24.96 132.13-18.62L132.13-18.62L132.13-18.62Q130.82-12.29 130.82-6.59L130.82-6.59L130.82-6.59Q130.82-2.69 133.12-2.69L133.12-2.69L133.12-2.69Q135.17-2.69 136.61-4.74L136.61-4.74L136.61-4.74Q138.05-6.78 138.62-10.18L138.62-10.18L142.08-28.93L142.08-28.93Q140.74-30.08 138.37-30.08ZM174.62-1.92L174.62-1.92L174.62-1.92Q173.12-3.58 172.45-6.21L172.45-6.21L172.45-6.21Q171.78-8.83 171.78-13.12L171.78-13.12L171.78-13.12Q171.78-17.41 173.25-21.31L173.25-21.31L173.25-21.31Q174.72-25.22 177.41-28.03L177.41-28.03L177.41-28.03Q182.91-33.92 192-33.92L192-33.92L192-33.92Q195.26-33.92 197.63-32.83L197.63-32.83L208.58-33.92L203.84-8.96L203.84-8.96Q203.65-8.19 203.65-6.78L203.65-6.78L203.65-6.78Q203.65-5.38 204.51-4.48L204.51-4.48L204.51-4.48Q205.38-3.58 206.66-3.46L206.66-3.46L206.66-3.46Q206.02-1.28 203.68 0L203.68 0L203.68 0Q201.34 1.28 198.72 1.28L198.72 1.28L198.72 1.28Q196.10 1.28 194.34 0.29L194.34 0.29L194.34 0.29Q192.58-0.70 192.06-2.37L192.06-2.37L192.06-2.37Q191.04-0.77 188.86 0.26L188.86 0.26L188.86 0.26Q186.69 1.28 183.78 1.28L183.78 1.28L183.78 1.28Q180.86 1.28 178.50 0.51L178.50 0.51L178.50 0.51Q176.13-0.26 174.62-1.92ZM188.13-27.90L188.13-27.90L188.13-27.90Q187.39-26.75 186.75-24.80L186.75-24.80L186.75-24.80Q186.11-22.85 185.06-17.63L185.06-17.63L185.06-17.63Q184-12.42 184-8.70L184-8.70L184-8.70Q184-4.99 184.58-3.90L184.58-3.90L184.58-3.90Q185.15-2.82 186.18-2.82L186.18-2.82L186.18-2.82Q188.22-2.82 189.73-4.77L189.73-4.77L189.73-4.77Q191.23-6.72 191.81-10.18L191.81-10.18L195.20-28.93L195.20-28.93Q193.86-30.08 192.29-30.08L192.29-30.08L192.29-30.08Q190.72-30.08 189.79-29.57L189.79-29.57L189.79-29.57Q188.86-29.06 188.13-27.90ZM239.10 1.28L239.10 1.28L239.10 1.28Q231.36 1.28 231.36-4.74L231.36-4.74L231.36-4.74Q231.42-6.40 231.94-9.22L231.94-9.22L233.09-15.10L233.09-15.10Q234.82-23.42 234.82-25.28L234.82-25.28L234.82-25.28Q234.82-28.99 232.64-28.99L232.64-28.99L232.64-28.99Q228.99-28.99 227.07-19.46L227.07-19.46L223.30 0L210.43 1.28L217.09-32.70L227.58-33.92L226.56-27.65L226.56-27.65Q229.57-33.92 238.78-33.92L238.78-33.92L238.78-33.92Q243.26-33.92 245.15-32.03L245.15-32.03L245.15-32.03Q247.04-30.14 247.04-25.92L247.04-25.92L247.04-25.92Q247.04-21.95 244.99-12.67L244.99-12.67L244.99-12.67Q244.03-8.51 244.03-6.94L244.03-6.94L244.03-6.94Q244.03-5.38 244.90-4.48L244.90-4.48L244.90-4.48Q245.76-3.58 247.04-3.46L247.04-3.46L247.04-3.46Q246.40-1.28 244.19 0L244.19 0L244.19 0Q241.98 1.28 239.10 1.28ZM272.32-33.92L272.32-33.92L272.32-33.92Q274.62-33.92 276.42-33.41L276.42-33.41L276.42-33.41Q276.48-33.66 276.61-34.37L276.61-34.37L276.93-36.35L276.93-36.35Q277.18-37.63 277.57-39.74L277.57-39.74L278.59-44.80L291.33-46.08L284.22-8.96L284.22-8.96Q284.16-8.58 284.16-7.94L284.16-7.94L284.16-6.91L284.16-6.91Q284.16-5.50 284.86-4.45L284.86-4.45L284.86-4.45Q285.57-3.39 286.72-3.39L286.72-3.39L286.72-3.39Q285.44-0.38 281.54 0.90L281.54 0.90L281.54 0.90Q280.19 1.28 278.30 1.28L278.30 1.28L278.30 1.28Q276.42 1.28 274.69 0.29L274.69 0.29L274.69 0.29Q272.96-0.70 272.45-2.37L272.45-2.37L272.45-2.37Q271.42-0.70 269.38 0.29L269.38 0.29L269.38 0.29Q267.33 1.28 264.35 1.28L264.35 1.28L264.35 1.28Q261.38 1.28 258.91 0.51L258.91 0.51L258.91 0.51Q256.45-0.26 254.91-1.92L254.91-1.92L254.91-1.92Q252.10-5.18 252.10-12.61L252.10-12.61L252.10-12.61Q252.10-22.21 257.73-28.03L257.73-28.03L257.73-28.03Q263.36-33.92 272.32-33.92ZM271.87-30.08L271.87-30.08L271.87-30.08Q269.50-30.08 268.22-27.52L268.22-27.52L268.22-27.52Q266.94-24.96 265.63-18.62L265.63-18.62L265.63-18.62Q264.32-12.29 264.32-6.59L264.32-6.59L264.32-6.59Q264.32-2.69 266.62-2.69L266.62-2.69L266.62-2.69Q268.67-2.69 270.11-4.74L270.11-4.74L270.11-4.74Q271.55-6.78 272.13-10.18L272.13-10.18L275.58-28.93L275.58-28.93Q274.24-30.08 271.87-30.08ZM353.09-10.69L353.09-10.69Q348.86-4.86 344.80-1.79L344.80-1.79L344.80-1.79Q340.74 1.28 336.54 1.28L336.54 1.28L336.54 1.28Q332.35 1.28 330.88 0.45L330.88 0.45L330.88-13.63L330.88-13.63Q327.23-3.90 320.70-0.13L320.70-0.13L320.70-0.13Q318.34 1.28 316.10 1.28L316.10 1.28L316.10 1.28Q311.81 1.28 309.95 0.45L309.95 0.45L309.95 0.45Q309.50-14.21 309.12-18.27L309.12-18.27L309.12-18.27Q308.74-22.34 308.42-24.83L308.42-24.83L308.42-24.83Q307.78-29.82 305.60-31.87L305.60-31.87L305.60-31.87Q308.35-33.92 312.19-33.92L312.19-33.92L312.19-33.92Q319.62-33.92 320.64-24.70L320.64-24.70L320.64-24.70Q320.90-22.53 320.90-20.22L320.90-20.22L320.90-20.22Q320.90-16.77 320.13-4.74L320.13-4.74L320.13-4.74Q321.66-5.44 323.30-7.97L323.30-7.97L323.30-7.97Q324.93-10.50 326.27-13.95L326.27-13.95L326.27-13.95Q329.28-21.95 329.28-28.86L329.28-28.86L329.28-28.86Q329.28-29.95 328.99-31.10L328.99-31.10L328.99-31.10Q328.70-32.26 328.38-32.58L328.38-32.58L328.38-32.58Q330.62-33.92 334.05-33.92L334.05-33.92L334.05-33.92Q337.47-33.92 339.10-31.58L339.10-31.58L339.10-31.58Q340.74-29.25 341.18-24.96L341.18-24.96L341.18-24.96Q341.70-19.52 341.70-16.26L341.70-16.26L341.70-16.26Q341.70-11.71 341.25-4.99L341.25-4.99L341.25-4.99Q344.45-7.30 347.07-14.85L347.07-14.85L347.07-14.85Q349.70-22.40 349.70-27.78L349.70-27.78L349.70-27.78Q349.70-30.14 349.31-31.55L349.31-31.55L349.31-31.55Q351.42-33.92 355.07-33.92L355.07-33.92L355.07-33.92Q357.31-33.92 358.94-32.70L358.94-32.70L358.94-32.70Q360.58-31.49 360.58-29.22L360.58-29.22L360.58-29.22Q360.58-26.94 359.90-24.51L359.90-24.51L359.90-24.51Q359.23-22.08 358.14-19.58L358.14-19.58L358.14-19.58Q356.03-14.59 353.09-10.69L353.09-10.69ZM382.34-17.98L382.34-17.98L382.34-17.98Q384.64-22.08 384.64-26.24L384.64-26.24L384.64-26.24Q384.64-28.99 382.66-28.99L382.66-28.99L382.66-28.99Q381.12-28.99 379.52-26.37L379.52-26.37L379.52-26.37Q377.86-23.74 377.34-20.35L377.34-20.35L374.02 0L360.77 1.28L367.30-32.64L377.86-33.92L376.70-27.46L376.70-27.46Q379.84-33.92 386.88-33.92L386.88-33.92L386.88-33.92Q390.59-33.92 392.61-32L392.61-32L392.61-32Q394.62-30.08 394.62-26.14L394.62-26.14L394.62-26.14Q394.62-22.21 392.03-19.71L392.03-19.71L392.03-19.71Q389.44-17.22 385.02-17.22L385.02-17.22L385.02-17.22Q383.10-17.22 382.34-17.98ZM411.01-3.52L411.01-3.52L411.01-3.52Q409.02 1.28 402.69 1.28L402.69 1.28L402.69 1.28Q399.42 1.28 397.38-0.96L397.38-0.96L397.38-0.96Q395.65-2.94 395.65-4.93L395.65-4.93L395.65-4.93Q395.65-10.11 398.02-20.22L398.02-20.22L400.38-32.64L413.38-33.92L409.47-13.70L409.47-13.70Q408.38-8.96 408.38-7.30L408.38-7.30L408.38-7.30Q408.38-3.65 411.01-3.52ZM401.54-41.54L401.54-41.54L401.54-41.54Q401.54-44.03 403.62-45.38L403.62-45.38L403.62-45.38Q405.70-46.72 408.70-46.72L408.70-46.72L408.70-46.72Q411.71-46.72 413.54-45.38L413.54-45.38L413.54-45.38Q415.36-44.03 415.36-41.54L415.36-41.54L415.36-41.54Q415.36-39.04 413.34-37.76L413.34-37.76L413.34-37.76Q411.33-36.48 408.32-36.48L408.32-36.48L408.32-36.48Q405.31-36.48 403.42-37.76L403.42-37.76L403.42-37.76Q401.54-39.04 401.54-41.54ZM417.47-6.40L417.47-6.40L417.47-6.40Q417.47-8.13 418.37-12.48L418.37-12.48L421.76-29.76L417.98-29.76L418.24-31.68L418.24-31.68Q425.92-33.98 433.34-39.62L433.34-39.62L436.42-39.62L434.88-32.64L439.87-32.64L439.30-29.76L434.37-29.76L431.10-12.48L431.10-12.48Q430.27-8.51 430.27-7.17L430.27-7.17L430.27-7.17Q430.27-4.10 432.96-3.46L432.96-3.46L432.96-3.46Q432.32-1.28 430.02 0L430.02 0L430.02 0Q427.71 1.28 424.45 1.28L424.45 1.28L424.45 1.28Q421.18 1.28 419.33-0.77L419.33-0.77L419.33-0.77Q417.47-2.82 417.47-6.40ZM465.22-10.82L465.22-10.82L465.22-10.82Q466.82-9.73 466.82-7.33L466.82-7.33L466.82-7.33Q466.82-4.93 465.60-3.39L465.60-3.39L465.60-3.39Q464.38-1.86 462.40-0.83L462.40-0.83L462.40-0.83Q458.30 1.28 453.89 1.28L453.89 1.28L453.89 1.28Q449.47 1.28 446.88 0.32L446.88 0.32L446.88 0.32Q444.29-0.64 442.56-2.43L442.56-2.43L442.56-2.43Q439.17-5.82 439.17-12.03L439.17-12.03L439.17-12.03Q439.17-21.70 444.42-27.58L444.42-27.58L444.42-27.58Q450.05-33.92 459.84-33.92L459.84-33.92L459.84-33.92Q465.92-33.92 468.93-31.36L468.93-31.36L468.93-31.36Q471.17-29.44 471.17-26.30L471.17-26.30L471.17-26.30Q471.17-15.04 451.71-15.04L451.71-15.04L451.71-15.04Q451.46-13.38 451.46-11.97L451.46-11.97L451.46-11.97Q451.46-9.02 452.77-7.90L452.77-7.90L452.77-7.90Q454.08-6.78 456.51-6.78L456.51-6.78L456.51-6.78Q458.94-6.78 461.54-7.90L461.54-7.90L461.54-7.90Q464.13-9.02 465.22-10.82ZM452.16-17.79L452.16-17.79L452.16-17.79Q456.70-17.79 459.33-20.61L459.33-20.61L459.33-20.61Q461.95-23.30 461.95-27.58L461.95-27.58L461.95-27.58Q461.95-29.06 461.41-29.86L461.41-29.86L461.41-29.86Q460.86-30.66 459.78-30.66L459.78-30.66L459.78-30.66Q458.69-30.66 457.76-30.24L457.76-30.24L457.76-30.24Q456.83-29.82 455.87-28.42L455.87-28.42L455.87-28.42Q453.50-25.22 452.16-17.79Z"></path></g></g><style>text {
  font-size: 64px;
  font-family: Arial Black;
  dominant-baseline: central;
  text-anchor: middle;
}</style></svg>